<svg xmlns="http://www.w3.org/2000/svg" height="20" width="20"><path d="M6 12.083q-.854 0-1.469-.614-.614-.615-.614-1.469 0-.854.614-1.469.615-.614 1.469-.614.854 0 1.469.614.614.615.614 1.469 0 .854-.614 1.469-.615.614-1.469.614Zm0 3.063q-2.146 0-3.646-1.5T.854 10q0-2.146 1.5-3.646T6 4.854q1.417 0 2.594.698 1.177.698 1.864 1.865h7.146L20.188 10l-3.855 3.604-1.75-1.25-1.5 1.229-2.021-1.5h-.354q-.5 1.417-1.812 2.24-1.313.823-2.896.823ZM6 13.5q1.333 0 2.333-.854 1-.854 1.146-2.229h2.125l1.438 1.062 1.479-1.229 1.667 1.208L17.833 10l-.916-.917H9.354Q9 7.938 8.083 7.219 7.167 6.5 6 6.5q-1.458 0-2.479 1.021Q2.5 8.542 2.5 10q0 1.458 1.021 2.479Q4.542 13.5 6 13.5Z"/></svg>