<svg xmlns="http://www.w3.org/2000/svg" height="20" width="20"><path d="M5.062 14.042q1.146-.771 2.365-1.136 1.219-.364 2.573-.364 1.354 0 2.583.364 1.229.365 2.375 1.136.75-.875 1.094-1.907.344-1.031.344-2.135 0-2.667-1.865-4.531Q12.667 3.604 10 3.604T5.469 5.469Q3.604 7.333 3.604 10q0 1.104.344 2.135.344 1.032 1.114 1.907ZM10 11.458q-1.229 0-2.094-.864-.864-.865-.864-2.094 0-1.229.864-2.094.865-.864 2.094-.864 1.229 0 2.094.864.864.865.864 2.094 0 1.229-.864 2.094-.865.864-2.094.864Zm0 6.334q-1.604 0-3.021-.615Q5.562 16.562 4.5 15.5t-1.677-2.479Q2.208 11.604 2.208 10q0-1.625.615-3.031Q3.438 5.562 4.5 4.49q1.062-1.073 2.479-1.677Q8.396 2.208 10 2.208q1.625 0 3.031.615 1.407.615 2.479 1.677 1.073 1.062 1.678 2.479.604 1.417.604 3.021 0 1.604-.615 3.021-.615 1.417-1.677 2.479t-2.479 1.677q-1.417.615-3.021.615Zm0-1.396q1.062 0 2.042-.334.979-.333 1.875-1-.917-.562-1.896-.843-.979-.281-2.021-.281-1.042 0-2.031.27-.99.271-1.886.854.917.667 1.886 1 .969.334 2.031.334Zm0-6.334q.646 0 1.104-.468.458-.469.458-1.094 0-.646-.458-1.104-.458-.458-1.104-.458-.625 0-1.094.458-.468.458-.468 1.104 0 .625.468 1.094.469.468 1.094.468ZM10 8.5Zm0 6.562Z"/></svg>